#Comment line ignore any data following # character 
#Hierarchical Translation and Rotation (.htr) file 
[Header]	
#Header keywords are followed by a single value 
FileType HTR		#Single word string
DataType HTRS		#Translation followed by rotation and scale data
FileVersion 1		#integer
NumSegments 25		#integer
NumFrames 4		#integer
DataFrameRate 30		#integer, data frame rate in this file
EulerRotationOrder ZYX
CalibrationUnits mm
RotationUnits Degrees
GlobalAxisofGravity Y
BoneLengthAxis Y
ScaleFactor 1.00
[SegmentNames&Hierarchy]
#CHILD	PARENT
BN_Tick_Root GLOBAL
BN_Torso BN_Tick_Root
BN_L_Leg_Front01 BN_Torso
BN_L_Leg_Rear01 BN_Torso
BN_MetalTop BN_Torso
BN_Neck BN_Torso
BN_R_Leg_Front01 BN_Torso
BN_R_Leg_Rear01 BN_Torso
BN_Sack BN_Torso
BN_L_Leg_Front02 BN_L_Leg_Front01
BN_L_Leg_Front03 BN_L_Leg_Front02
BN_L_Leg_Rear02 BN_L_Leg_Rear01
BN_L_Leg_Rear03 BN_L_Leg_Rear02
BN_Head BN_Neck
BN_Needle BN_Head
BN_R_Leg_Front02 BN_R_Leg_Front01
BN_R_Leg_Front03 BN_R_Leg_Front02
BN_R_Leg_Rear02 BN_R_Leg_Rear01
BN_R_Leg_Rear03 BN_R_Leg_Rear02
BN_SackDef01 BN_Sack
BN_SackDef02 BN_Sack
BN_SackDef03 BN_Sack
BN_SackDef04 BN_Sack
BN_SackDef05 BN_Sack
BN_SackDef06 BN_Sack
[BasePosition]
#SegmentName Tx, Ty, Tz, Rx, Ry, Rz, BoneLength
BN_Tick_Root 0.000000 0.000000 0.000000 -90.000000 0.000000 0.000000 10.000000 
BN_Torso 0.000000 0.000000 0.000000 0.000000 0.000000 0.000000 10.000000 
BN_L_Leg_Front01 0.000000 0.000000 0.000000 0.000000 0.000000 0.000000 10.000000 
BN_L_Leg_Rear01 0.000000 0.000000 0.000000 0.000000 0.000000 0.000000 10.000000 
BN_MetalTop 0.000000 0.000000 0.000000 0.000000 0.000000 0.000000 10.000000 
BN_Neck 0.000000 0.000000 0.000000 0.000000 0.000000 0.000000 10.000000 
BN_R_Leg_Front01 0.000000 0.000000 0.000000 0.000000 0.000000 0.000000 10.000000 
BN_R_Leg_Rear01 0.000000 0.000000 0.000000 0.000000 0.000000 0.000000 10.000000 
BN_Sack 0.000000 0.000000 0.000000 0.000000 0.000000 0.000000 10.000000 
BN_L_Leg_Front02 0.000000 0.000000 0.000000 0.000000 0.000000 0.000000 10.000000 
BN_L_Leg_Front03 0.000000 0.000000 0.000000 0.000000 0.000000 0.000000 10.000000 
BN_L_Leg_Rear02 0.000000 0.000000 0.000000 0.000000 0.000000 0.000000 10.000000 
BN_L_Leg_Rear03 0.000000 0.000000 0.000000 0.000000 0.000000 0.000000 10.000000 
BN_Head 0.000000 0.000000 0.000000 0.000000 0.000000 0.000000 10.000000 
BN_Needle 0.000000 0.000000 0.000000 0.000000 0.000000 0.000000 10.000000 
BN_R_Leg_Front02 0.000000 0.000000 0.000000 0.000000 0.000000 0.000000 10.000000 
BN_R_Leg_Front03 0.000000 0.000000 0.000000 0.000000 0.000000 0.000000 10.000000 
BN_R_Leg_Rear02 0.000000 0.000000 0.000000 0.000000 0.000000 0.000000 10.000000 
BN_R_Leg_Rear03 0.000000 0.000000 0.000000 0.000000 0.000000 0.000000 10.000000 
BN_SackDef01 0.000000 0.000000 0.000000 0.000000 0.000000 0.000000 10.000000 
BN_SackDef02 0.000000 0.000000 0.000000 0.000000 0.000000 0.000000 10.000000 
BN_SackDef03 0.000000 0.000000 0.000000 0.000000 0.000000 0.000000 10.000000 
BN_SackDef04 0.000000 0.000000 0.000000 0.000000 0.000000 0.000000 10.000000 
BN_SackDef05 0.000000 0.000000 0.000000 0.000000 0.000000 0.000000 10.000000 
BN_SackDef06 0.000000 0.000000 0.000000 0.000000 0.000000 0.000000 10.000000 
#Beginning of Data. Separated by tabs
#Fr	Tx	Ty	Tz	Rx	Ry	Rz	SF
[BN_Tick_Root]
1032 0.000000 0.000000 0.000000 0.000000 0.000000 -0.000020 0.000000
1033 0.000000 0.000000 0.000000 0.000000 0.000000 -0.000020 0.000000
1034 0.000000 0.000000 0.000000 0.000000 0.000000 -0.000020 0.000000
1035 0.000000 0.000000 0.000000 0.000000 0.000000 -0.000020 0.000000
[BN_Torso]
1032 -723.553162 208.898407 225.200989 19.099594 4.071520 -81.606964 786.055481
1033 -723.117310 209.825485 218.600632 19.074572 4.071338 -81.559814 784.035461
1034 -722.986145 210.156525 213.133621 19.048828 4.071168 -81.511322 782.496460
1035 -722.855103 210.487625 207.665939 18.949305 4.070405 -81.324417 780.992737
[BN_L_Leg_Front01]
1032 -68.477791 10.734189 -26.804373 -71.982559 47.767708 137.089905 74.316254
1033 -68.477791 10.734189 -26.804373 -71.406960 47.563351 137.193314 74.316254
1034 -68.477791 10.734189 -26.804373 -71.199905 47.492149 137.233231 74.316254
1035 -68.477791 10.734189 -26.804373 -70.988899 47.419308 137.273483 74.316254
[BN_L_Leg_Rear01]
1032 -72.133743 -73.994843 -18.268616 145.156555 42.175529 -124.823700 104.939293
1033 -72.133743 -73.994843 -18.268616 145.145615 42.073669 -124.840767 104.939293
1034 -72.133743 -73.994843 -18.268616 145.134766 41.971737 -124.857758 104.939293
1035 -72.133743 -73.994843 -18.268616 145.123947 41.861633 -124.873573 104.939293
[BN_MetalTop]
1032 0.000008 13.737477 26.403606 91.998055 -14.376676 -99.584435 29.763546
1033 0.000008 13.737477 26.403606 91.974304 -14.354105 -99.517487 29.763546
1034 0.000008 13.737477 26.403606 91.950562 -14.331499 -99.450523 29.763546
1035 0.000008 13.737477 26.403606 91.926590 -14.308646 -99.382935 29.763546
[BN_Neck]
1032 0.000014 95.233284 10.002091 -89.999672 -65.297531 89.999657 95.757088
1033 0.000014 95.233284 10.002091 -89.999672 -65.297531 89.999657 95.757088
1034 0.000014 95.233284 10.002091 -89.999672 -65.297531 89.999657 95.757088
1035 0.000014 95.233284 10.002091 -89.999672 -65.297531 89.999657 95.757088
[BN_R_Leg_Front01]
1032 68.477768 10.734107 -26.804314 27.252474 28.667585 -38.539211 74.316193
1033 68.477768 10.734107 -26.804314 27.162640 28.495159 -38.502697 74.316193
1034 68.477768 10.734107 -26.804314 27.128958 28.433884 -38.489697 74.316193
1035 68.477768 10.734107 -26.804314 27.094561 28.371298 -38.476452 74.316193
[BN_R_Leg_Rear01]
1032 72.133751 -73.994873 -18.268644 -124.773163 33.190796 -30.733133 104.939331
1033 72.133751 -73.994873 -18.268644 -124.417458 32.578014 -30.232296 104.939331
1034 72.133751 -73.994873 -18.268644 -124.183838 32.160248 -29.897381 104.939331
1035 72.133751 -73.994873 -18.268644 -124.041985 31.904846 -29.697109 104.939331
[BN_Sack]
1032 -0.000000 -78.024918 33.657791 92.379822 1.801371 -102.244217 84.974907
1033 -0.000000 -78.024918 33.657791 92.368523 1.782757 -102.152252 84.974907
1034 -0.000000 -78.024918 33.657791 92.357208 1.764175 -102.060318 84.974907
1035 -0.000000 -78.024918 33.657791 92.345734 1.745424 -101.967407 84.974907
[BN_L_Leg_Front02]
1032 142.805023 -0.000015 -0.000104 25.727091 -0.212808 -44.272648 142.805023
1033 142.805023 -0.000015 -0.000104 25.202068 0.235946 -46.991711 142.805023
1034 142.805023 -0.000015 -0.000104 25.114571 0.855214 -49.617439 142.805023
1035 142.805023 -0.000015 -0.000104 25.018240 1.513452 -52.098015 142.805023
[BN_L_Leg_Front03]
1032 124.143021 -0.000045 0.000007 0.354258 -0.440747 101.768082 124.143021
1033 124.143021 -0.000045 0.000007 0.354715 -0.438367 103.065742 124.143021
1034 124.143021 -0.000045 0.000007 0.355227 -0.435997 104.363556 124.143021
1035 124.143021 -0.000045 0.000007 0.355771 -0.433618 105.665497 124.143021
[BN_L_Leg_Rear02]
1032 139.939041 0.000075 -0.000022 46.020153 17.446335 95.509483 139.939041
1033 139.939041 0.000075 -0.000022 47.786411 16.412241 99.135574 139.939041
1034 139.939041 0.000075 -0.000022 49.385860 15.180867 102.490746 139.939041
1035 139.939041 0.000075 -0.000022 50.776783 13.866503 105.390915 139.939041
[BN_L_Leg_Rear03]
1032 142.839615 0.000179 -0.000060 0.000881 -0.002176 -134.080215 142.839615
1033 142.839615 0.000179 -0.000060 0.000906 -0.002165 -135.390732 142.839615
1034 142.839615 0.000179 -0.000060 0.000926 -0.002157 -136.461212 142.839615
1035 142.839615 0.000179 -0.000060 0.000946 -0.002148 -137.530197 142.839615
[BN_Head]
1032 57.062447 -0.000030 0.000000 -21.612495 2.620181 23.569269 57.062447
1033 57.062447 -0.000030 0.000000 -21.638859 2.541336 22.973057 57.062447
1034 57.062447 -0.000030 0.000000 -21.725712 2.114020 22.555517 57.062447
1035 57.062447 -0.000030 0.000000 -21.775158 1.220361 22.185249 57.062447
[BN_Needle]
1032 33.698143 63.768021 0.000000 0.000003 0.000030 87.896805 72.124374
1033 33.704266 63.934429 0.000000 0.000003 0.000030 87.896805 72.274399
1034 33.710392 64.100845 0.000000 0.000003 0.000030 87.896805 72.424507
1035 33.716515 64.267281 0.000000 0.000003 0.000030 87.896805 72.574692
[BN_R_Leg_Front02]
1032 142.804947 -0.000060 0.000060 95.866531 40.470604 156.884811 142.804947
1033 142.804947 -0.000060 0.000060 95.347954 38.024628 156.260040 142.804947
1034 142.804947 -0.000060 0.000060 94.884499 35.917622 155.766464 142.804947
1035 142.804947 -0.000060 0.000060 94.453094 33.807365 155.303619 142.804947
[BN_R_Leg_Front03]
1032 124.143005 -0.000060 -0.000156 -0.353446 -0.403106 -63.553116 124.143005
1033 124.143005 -0.000060 -0.000156 -0.354015 -0.407013 -65.315392 124.143005
1034 124.143005 -0.000060 -0.000156 -0.353374 -0.411539 -66.766739 124.143005
1035 124.143005 -0.000060 -0.000156 -0.352618 -0.416048 -68.218704 124.143005
[BN_R_Leg_Rear02]
1032 139.939011 -0.000149 0.000015 43.942783 -24.212854 -138.891739 139.939011
1033 139.939011 -0.000149 0.000015 44.414013 -21.521259 -140.551559 139.939011
1034 139.939011 -0.000149 0.000015 44.401371 -19.124905 -142.281387 139.939011
1035 139.939011 -0.000149 0.000015 44.075363 -16.712347 -144.048935 139.939011
[BN_R_Leg_Rear03]
1032 142.839417 0.000075 0.000119 0.002101 -0.001046 142.928207 142.839417
1033 142.839417 0.000075 0.000119 0.002093 -0.001062 143.804733 142.839417
1034 142.839417 0.000075 0.000119 0.002085 -0.001078 144.681305 142.839417
1035 142.839417 0.000075 0.000119 0.002077 -0.001094 145.552811 142.839417
[BN_SackDef01]
1032 249.782364 -3.760681 42.949394 -128.408218 -44.374973 -11.740845 253.475876
1033 249.782364 -3.760681 42.949394 -128.408218 -44.374973 -11.740845 253.475876
1034 249.782364 -3.760681 42.949394 -128.408218 -44.374973 -11.740845 253.475876
1035 249.782364 -3.760681 42.949394 -128.408218 -44.374973 -11.740845 253.475876
[BN_SackDef02]
1032 138.789902 -62.131630 45.674454 32.077126 -27.375721 -88.781525 158.773834
1033 138.789902 -62.131630 45.674454 32.077126 -27.375721 -88.781525 158.773834
1034 138.789902 -62.131630 45.674458 32.077126 -27.375721 -88.781525 158.773834
1035 138.789902 -62.131630 45.674458 32.077126 -27.375721 -88.781525 158.773834
[BN_SackDef03]
1032 249.782257 -3.760560 -42.949635 18.144459 44.375008 -11.740894 253.475815
1033 249.782257 -3.760561 -42.949635 18.144459 44.375008 -11.740894 253.475815
1034 249.782257 -3.760561 -42.949635 18.144459 44.375008 -11.740894 253.475815
1035 249.782257 -3.760561 -42.949635 18.144459 44.375008 -11.740894 253.475815
[BN_SackDef04]
1032 138.789825 -62.131504 -45.674480 146.059982 27.375723 -88.781555 158.773743
1033 138.789825 -62.131504 -45.674480 146.059982 27.375723 -88.781555 158.773743
1034 138.789825 -62.131504 -45.674480 146.059982 27.375723 -88.781555 158.773743
1035 138.789825 -62.131504 -45.674480 146.059982 27.375723 -88.781555 158.773743
[BN_SackDef05]
1032 118.790131 46.167221 -63.831261 0.155741 51.314110 90.605110 142.537491
1033 118.790131 46.167221 -63.831261 0.155741 51.314110 90.605110 142.537491
1034 118.790131 46.167221 -63.831261 0.155741 51.314110 90.605110 142.537491
1035 118.790131 46.167221 -63.831261 0.155741 51.314110 90.605110 142.537491
[BN_SackDef06]
1032 118.790169 46.167294 63.831150 152.058487 -51.314072 90.605019 142.537506
1033 118.790169 46.167294 63.831150 152.058487 -51.314072 90.605019 142.537506
1034 118.790169 46.167294 63.831150 152.058487 -51.314072 90.605019 142.537506
1035 118.790169 46.167294 63.831150 152.058487 -51.314072 90.605019 142.537506
